<?xml version="1.0" standalone="no"?>
<!DOCTYPE svg PUBLIC "-//W3C//DTD SVG 20010904//EN"
 "http://www.w3.org/TR/2001/REC-SVG-20010904/DTD/svg10.dtd">
<svg version="1.0" xmlns="http://www.w3.org/2000/svg"
 width="1487.000000pt" height="1487.000000pt" viewBox="0 0 1487.000000 1487.000000"
 preserveAspectRatio="xMidYMid meet">
<metadata>
Created by potrace 1.11, written by Peter Selinger 2001-2013
</metadata>
<g transform="translate(0.000000,1487.000000) scale(0.100000,-0.100000)"
fill="#000000" stroke="none">
<path d="M7165 14863 c-953 -38 -1842 -242 -2720 -623 -179 -78 -567 -276
-755 -386 -1739 -1016 -3005 -2714 -3475 -4659 -146 -606 -208 -1132 -207
-1770 0 -459 29 -812 103 -1245 316 -1860 1349 -3551 2864 -4687 1067 -800
2316 -1296 3630 -1442 301 -34 495 -44 835 -44 336 0 517 10 825 44 2222 244
4216 1497 5438 3416 656 1028 1036 2167 1143 3423 32 375 23 970 -22 1375
-167 1520 -792 2942 -1806 4111 -154 179 -379 414 -389 408 -5 -3 -58 39 -117
93 -693 640 -1449 1118 -2314 1464 -386 155 -938 315 -1348 393 -552 104
-1156 151 -1685 129z m753 -1929 c1215 -105 2372 -619 3271 -1452 58 -54 110
-96 117 -94 15 3 194 -184 325 -340 683 -815 1120 -1778 1268 -2794 53 -364
71 -888 42 -1219 -86 -973 -389 -1843 -921 -2640 -208 -312 -401 -547 -665
-810 -901 -902 -2087 -1459 -3376 -1585 -330 -32 -793 -30 -1119 5 -1097 119
-2092 542 -2950 1255 -161 134 -546 519 -680 679 -667 803 -1084 1735 -1229
2746 -69 481 -69 1082 0 1560 320 2214 1958 4020 4129 4554 350 86 714 137
1110 155 132 6 509 -5 678 -20z"/>
<path d="M5543 10592 l-1892 -1037 -1 -2075 0 -2076 1891 -1034 c1040 -569
1895 -1034 1901 -1032 5 1 857 467 1894 1034 l1884 1031 0 2076 -1 2076 -1806
990 c-993 545 -1844 1011 -1892 1037 l-86 46 -1892 -1036z m3630 -256 c940
-514 1717 -942 1728 -952 19 -17 19 -52 19 -1904 0 -1494 -3 -1890 -12 -1902
-18 -23 -3448 -1898 -3472 -1898 -25 0 -3445 1866 -3468 1893 -17 18 -18 123
-18 1906 0 1495 3 1890 12 1903 9 11 2674 1472 3433 1881 17 9 39 15 50 12 11
-2 789 -425 1728 -939z"/>
<path d="M5755 10225 l-1670 -913 -3 -556 -2 -556 728 0 c779 0 785 0 884 -51
53 -27 133 -103 163 -154 14 -22 31 -65 38 -95 16 -63 15 -63 137 -33 174 42
264 123 410 368 110 185 185 283 266 350 120 97 282 155 495 177 l117 12 4 86
c9 181 114 317 289 371 58 18 106 19 983 19 785 0 930 -2 979 -15 176 -46 299
-172 327 -338 8 -44 11 -146 8 -295 -4 -201 -7 -233 -25 -280 -46 -115 -143
-207 -268 -254 l-60 -23 -930 -3 c-610 -2 -947 1 -978 8 -183 39 -315 190
-325 373 l-5 79 -71 -6 c-267 -26 -377 -99 -525 -347 -97 -162 -138 -222 -200
-294 -27 -33 -49 -60 -48 -61 1 -2 71 -16 154 -33 286 -58 570 -171 778 -309
50 -33 167 -122 260 -197 199 -159 273 -211 393 -270 206 -104 440 -153 808
-171 l141 -7 5 85 c3 68 10 97 33 144 35 72 114 153 183 188 111 56 107 56
864 56 l698 0 -2 1016 -3 1017 -1670 913 c-918 503 -1674 914 -1680 913 -5 0
-761 -411 -1680 -914z"/>
<path d="M7649 8947 c-56 -38 -59 -50 -59 -300 0 -253 4 -271 63 -307 31 -19
57 -20 942 -20 885 0 911 1 942 20 61 37 64 54 61 321 l-3 241 -37 34 -38 34
-918 0 -919 0 -34 -23z"/>
<path d="M4080 7615 l0 -335 718 0 c693 0 718 1 749 20 66 40 68 49 68 310 0
217 -2 238 -20 269 -11 18 -36 42 -55 52 -33 18 -71 19 -747 19 l-713 0 0
-335z"/>
<path d="M5908 7433 c-3 -118 -6 -133 -33 -187 -50 -100 -137 -175 -254 -219
-55 -21 -68 -22 -798 -25 l-743 -3 0 -674 0 -675 23 -14 c32 -20 3320 -1817
3329 -1819 4 -1 761 410 1683 913 l1675 915 0 213 0 212 -709 0 c-682 0 -711
1 -774 20 -133 41 -248 148 -282 264 -8 27 -15 79 -15 116 l0 66 -187 12
c-579 37 -933 165 -1311 473 -297 241 -418 320 -610 394 -217 84 -592 145
-893 145 l-97 0 -4 -127z"/>
<path d="M9363 6980 c-59 -36 -63 -54 -63 -315 l0 -235 34 -38 34 -37 711 -3
711 -2 0 325 0 325 -697 0 c-675 0 -699 -1 -730 -20z"/>
</g>
</svg>
